<svg width="69" height="53" viewBox="0 0 69 53" fill="none" xmlns="http://www.w3.org/2000/svg">
<path d="M38.4644 1.18921C29.0194 1.18921 20.8063 6.43213 16.5322 14.1521C17.8148 13.9142 19.094 13.7715 20.4239 13.7715C31.2462 13.7715 40.0752 22.2084 40.0752 32.5991C40.0752 40.0813 35.5169 46.5168 28.9687 49.5681C31.9128 50.7608 35.0938 51.4267 38.461 51.4267C52.2748 51.4267 63.5234 40.1798 63.5234 26.2621C63.5234 12.3444 52.2782 1.18921 38.4644 1.18921Z" fill="#47FEFE"/>
<path d="M28.9688 49.6157C19.8555 45.8509 13.3987 36.8431 13.3987 26.3573C13.3987 21.9231 14.5391 17.7777 16.5323 14.2031C7.56115 15.9191 0.772705 23.5439 0.772705 32.6977C0.772705 43.0884 9.55437 51.5253 20.424 51.5253C23.5103 51.4744 26.407 50.8084 28.9688 49.6157Z" fill="#4200FF"/>
</svg>
